<?xml version="1.0" encoding="UTF-8"?>
<svg width="14px" height="8px" viewBox="0 0 14 8" version="1.1" xmlns="http://www.w3.org/2000/svg" xmlns:xlink="http://www.w3.org/1999/xlink">
    <!-- Generator: Sketch 52.6 (67491) - http://www.bohemiancoding.com/sketch -->
    <title>Fill 1</title>
    <desc>Created with Sketch.</desc>
    <g id="Symbols" stroke="none" stroke-width="1" fill="none" fill-rule="evenodd">
        <g id="ツールボタン-ロールオーバー用" transform="translate(-112.000000, -9.000000)" fill="#C7C7C7">
            <path d="M125.86875,15.6104167 C125.95625,15.6895838 126,15.8083326 126,15.9666667 C126,16.1513897 125.927085,16.3031245 125.78125,16.421875 C125.635415,16.5406256 125.460418,16.6 125.25625,16.6 L112.74375,16.6 C112.539582,16.6 112.364584,16.5406256 112.21875,16.421875 C112.072916,16.3031245 112,16.1513897 112,15.9666667 C112,15.8347215 112.04375,15.7291672 112.13125,15.65 L112.21875,15.53125 L118.16875,9.35625 C118.43125,9.11875 118.708332,9 119,9 C119.291668,9 119.56875,9.11875 119.83125,9.35625 L125.78125,15.53125 L125.86875,15.6104167 Z" id="Fill-1" transform="translate(119.000000, 12.800000) scale(1, -1) translate(-119.000000, -12.800000) "></path>
        </g>
    </g>
</svg>