<?xml version="1.0" encoding="UTF-8"?>
<svg width="14px" height="8px" viewBox="0 0 14 8" version="1.1" xmlns="http://www.w3.org/2000/svg" xmlns:xlink="http://www.w3.org/1999/xlink">
    <!-- Generator: Sketch 52.6 (67491) - http://www.bohemiancoding.com/sketch -->
    <title>Fill 1</title>
    <desc>Created with Sketch.</desc>
    <g id="Symbols" stroke="none" stroke-width="1" fill="none" fill-rule="evenodd">
        <g id="ツールボタン-ロールオーバー用" transform="translate(-62.000000, -9.000000)" fill="#C7C7C7">
            <path d="M75.86875,15.6104167 C75.95625,15.6895838 76,15.8083326 76,15.9666667 C76,16.1513897 75.9270852,16.3031245 75.78125,16.421875 C75.6354148,16.5406256 75.4604176,16.6 75.25625,16.6 L62.74375,16.6 C62.5395824,16.6 62.3645841,16.5406256 62.21875,16.421875 C62.0729159,16.3031245 62,16.1513897 62,15.9666667 C62,15.8347215 62.0437496,15.7291672 62.13125,15.65 L62.21875,15.53125 L68.16875,9.35625 C68.43125,9.11875 68.7083324,9 69,9 C69.2916676,9 69.56875,9.11875 69.83125,9.35625 L75.78125,15.53125 L75.86875,15.6104167 Z" id="Fill-1"></path>
        </g>
    </g>
</svg>