<?xml version="1.0" encoding="UTF-8"?><svg xmlns="http://www.w3.org/2000/svg" xmlns:xlink="http://www.w3.org/1999/xlink"><symbol viewBox="0 0 6 12" id="grab" xmlns="http://www.w3.org/2000/svg"><g fill-rule="nonzero" fill="#D8D8D8"><circle cx="1" cy="1" r="1"/><circle cx="1" cy="6" r="1"/><circle cx="1" cy="11" r="1"/><circle cx="5" cy="1" r="1"/><circle cx="5" cy="6" r="1"/><circle cx="5" cy="11" r="1"/></g></symbol><symbol viewBox="0 0 14 14" id="top" xmlns="http://www.w3.org/2000/svg"><g fill="#C7C7C7" fill-rule="evenodd"><path d="M13.869 13.01c.087.08.131.198.131.357a.561.561 0 0 1-.219.455.805.805 0 0 1-.525.178H.744a.805.805 0 0 1-.525-.178.561.561 0 0 1-.219-.455c0-.132.044-.238.131-.317l.088-.119 5.95-6.175C6.43 6.52 6.709 6.4 7 6.4c.292 0 .569.119.831.356l5.95 6.175.088.08z"/><path d="M13.869 7.01c.087.08.131.198.131.357a.561.561 0 0 1-.219.455.805.805 0 0 1-.525.178H.744a.805.805 0 0 1-.525-.178A.561.561 0 0 1 0 7.367c0-.132.044-.238.131-.317l.088-.119L6.169.756C6.43.52 6.709.4 7 .4c.292 0 .569.119.831.356l5.95 6.175.088.08z"/></g></symbol></svg>