<?xml version="1.0" encoding="UTF-8"?>
<svg width="14px" height="14px" viewBox="0 0 14 14" version="1.1" xmlns="http://www.w3.org/2000/svg" xmlns:xlink="http://www.w3.org/1999/xlink">
    <!-- Generator: Sketch 52.6 (67491) - http://www.bohemiancoding.com/sketch -->
    <title>Group Copy</title>
    <desc>Created with Sketch.</desc>
    <g id="Symbols" stroke="none" stroke-width="1" fill="none" fill-rule="evenodd">
        <g id="ツールボタン-ロールオーバー用" transform="translate(-13.000000, -6.000000)" fill="#C7C7C7">
            <g id="Group-Copy" transform="translate(20.000000, 13.000000) scale(1, -1) translate(-20.000000, -13.000000) translate(13.000000, 6.000000)">
                <path d="M13.86875,6.61041667 C13.95625,6.68958384 14,6.80833257 14,6.96666667 C14,7.15138973 13.9270852,7.30312449 13.78125,7.421875 C13.6354148,7.54062558 13.4604176,7.6 13.25625,7.6 L0.74375,7.6 C0.5395824,7.6 0.36458408,7.54062558 0.21875,7.421875 C0.072915948,7.30312449 0,7.15138973 0,6.96666667 C0,6.83472155 0.043749552,6.72916717 0.13125,6.65 L0.21875,6.53125 L6.16875,0.35625 C6.43125,0.11875 6.7083324,1.33226763e-14 7,1.33226763e-14 C7.2916676,1.33226763e-14 7.56875,0.11875 7.83125,0.35625 L13.78125,6.53125 L13.86875,6.61041667 Z" id="Fill-1" transform="translate(7.000000, 3.800000) scale(1, -1) translate(-7.000000, -3.800000) "></path>
                <path d="M13.86875,12.6104167 C13.95625,12.6895838 14,12.8083326 14,12.9666667 C14,13.1513897 13.9270852,13.3031245 13.78125,13.421875 C13.6354148,13.5406256 13.4604176,13.6 13.25625,13.6 L0.74375,13.6 C0.5395824,13.6 0.36458408,13.5406256 0.21875,13.421875 C0.072915948,13.3031245 0,13.1513897 0,12.9666667 C0,12.8347215 0.043749552,12.7291672 0.13125,12.65 L0.21875,12.53125 L6.16875,6.35625 C6.43125,6.11875 6.7083324,6 7,6 C7.2916676,6 7.56875,6.11875 7.83125,6.35625 L13.78125,12.53125 L13.86875,12.6104167 Z" id="Fill-1-Copy" transform="translate(7.000000, 9.800000) scale(1, -1) translate(-7.000000, -9.800000) "></path>
            </g>
        </g>
    </g>
</svg>