<?xml version="1.0" encoding="UTF-8"?>
<svg width="13px" height="15px" viewBox="0 0 13 15" version="1.1" xmlns="http://www.w3.org/2000/svg" xmlns:xlink="http://www.w3.org/1999/xlink">
    <!-- Generator: Sketch 52.6 (67491) - http://www.bohemiancoding.com/sketch -->
    <title>Fill 1</title>
    <desc>Created with Sketch.</desc>
    <g id="Symbols" stroke="none" stroke-width="1" fill="none" fill-rule="evenodd">
        <g id="ツールボタン-ロールオーバー用" transform="translate(-215.000000, -5.000000)" fill="#FFFFFF">
            <path d="M223.4375,18.125 C223.564454,18.125 223.674316,18.0786144 223.767089,17.9858394 C223.859864,17.8930663 223.90625,17.7832044 223.90625,17.65625 L223.90625,12.03125 C223.90625,11.9042956 223.859864,11.7944337 223.767089,11.7016606 C223.674316,11.6088856 223.564454,11.5625 223.4375,11.5625 C223.310546,11.5625 223.200684,11.6088856 223.107911,11.7016606 C223.015136,11.7944337 222.96875,11.9042956 222.96875,12.03125 L222.96875,17.65625 C222.96875,17.7832044 223.015136,17.8930663 223.107911,17.9858394 C223.200684,18.0786144 223.310546,18.125 223.4375,18.125 Z M218.75,18.125 C218.876954,18.125 218.986816,18.0786144 219.079589,17.9858394 C219.172364,17.8930663 219.21875,17.7832044 219.21875,17.65625 L219.21875,12.03125 C219.21875,11.9042956 219.172364,11.7944337 219.079589,11.7016606 C218.986816,11.6088856 218.876954,11.5625 218.75,11.5625 C218.623046,11.5625 218.513184,11.6088856 218.420411,11.7016606 C218.327636,11.7944337 218.28125,11.9042956 218.28125,12.03125 L218.28125,17.65625 C218.28125,17.7832044 218.327636,17.8930663 218.420411,17.9858394 C218.513184,18.0786144 218.623046,18.125 218.75,18.125 Z M226.25,6.875 L223.4375,6.875 L223.4375,5.9375 C223.4375,5.68359312 223.344727,5.4638675 223.159179,5.27832125 C222.973633,5.09277312 222.753907,5 222.5,5 L219.6875,5 C219.433593,5 219.213867,5.09277312 219.028321,5.27832125 C218.842773,5.4638675 218.75,5.68359312 218.75,5.9375 L218.75,6.875 L215.9375,6.875 C215.683593,6.875 215.463868,6.96777312 215.27832,7.15332125 C215.092773,7.3388675 215,7.55859312 215,7.8125 L215,8.75 C215,9.00390687 215.092773,9.2236325 215.27832,9.40917875 C215.463868,9.59472687 215.683593,9.6875 215.9375,9.6875 L215.9375,18.125 C215.9375,18.6425806 216.120604,19.0844709 216.486817,19.4506835 C216.853029,19.8168964 217.294919,20 217.8125,20 L224.375,20 C224.892581,20 225.334471,19.8168964 225.700683,19.4506835 C226.066897,19.0844709 226.25,18.6425806 226.25,18.125 L226.25,9.6875 C226.503907,9.6875 226.723633,9.59472687 226.909179,9.40917875 C227.094727,9.2236325 227.1875,9.00390687 227.1875,8.75 L227.1875,7.8125 C227.1875,7.55859312 227.094727,7.3388675 226.909179,7.15332125 C226.723633,6.96777312 226.503907,6.875 226.25,6.875 Z M219.6875,6.40625 C219.6875,6.27929562 219.733886,6.16943375 219.826661,6.07666062 C219.919434,5.98388562 220.029296,5.9375 220.15625,5.9375 L222.03125,5.9375 C222.158204,5.9375 222.268066,5.98388562 222.360839,6.07666062 C222.453614,6.16943375 222.5,6.27929562 222.5,6.40625 L222.5,6.875 C222.382812,6.875 222.170412,6.875 221.862793,6.875 C221.555174,6.875 221.240236,6.875 220.917969,6.875 C220.595701,6.875 220.31006,6.875 220.061036,6.875 C219.812011,6.875 219.6875,6.875 219.6875,6.875 L219.6875,6.40625 Z M225.3125,18.125 C225.3125,18.3789074 225.219727,18.5986319 225.034179,18.7841797 C224.848633,18.9697274 224.628907,19.0625 224.375,19.0625 L217.8125,19.0625 C217.558593,19.0625 217.338867,18.9697274 217.153321,18.7841797 C216.967773,18.5986319 216.875,18.3789074 216.875,18.125 L216.875,9.6875 L225.3125,9.6875 L225.3125,18.125 Z M225.78125,8.75 L216.40625,8.75 C216.279296,8.75 216.169434,8.70361437 216.07666,8.61083937 C215.983886,8.51806625 215.9375,8.40820437 215.9375,8.28125 C215.9375,8.15429562 215.983886,8.04443375 216.07666,7.95166062 C216.169434,7.85888562 216.279296,7.8125 216.40625,7.8125 L225.78125,7.8125 C225.908204,7.8125 226.018066,7.85888562 226.110839,7.95166062 C226.203614,8.04443375 226.25,8.15429562 226.25,8.28125 C226.25,8.40820437 226.203614,8.51806625 226.110839,8.61083937 C226.018066,8.70361437 225.908204,8.75 225.78125,8.75 Z M221.09375,18.125 C221.220704,18.125 221.330566,18.0786144 221.423339,17.9858394 C221.516114,17.8930663 221.5625,17.7832044 221.5625,17.65625 L221.5625,12.03125 C221.5625,11.9042956 221.516114,11.7944337 221.423339,11.7016606 C221.330566,11.6088856 221.220704,11.5625 221.09375,11.5625 C220.966796,11.5625 220.856934,11.6088856 220.764161,11.7016606 C220.671386,11.7944337 220.625,11.9042956 220.625,12.03125 L220.625,17.65625 C220.625,17.7832044 220.671386,17.8930663 220.764161,17.9858394 C220.856934,18.0786144 220.966796,18.125 221.09375,18.125 Z" id="Fill-1"></path>
        </g>
    </g>
</svg>