<?xml version="1.0" encoding="UTF-8"?><svg xmlns="http://www.w3.org/2000/svg" xmlns:xlink="http://www.w3.org/1999/xlink"><symbol viewBox="0 0 14 14" id="bottom" xmlns="http://www.w3.org/2000/svg"><g fill-rule="evenodd"><path d="M13.869.99C13.956.91 14 .792 14 .633a.561.561 0 0 0-.219-.455.805.805 0 0 0-.525-.178H.744C.54 0 .364.06.219.178A.561.561 0 0 0 0 .633C0 .765.044.871.131.95l.088.119 5.95 6.175c.262.237.54.356.831.356.292 0 .569-.119.831-.356l5.95-6.175.088-.08z"/><path d="M13.869 6.99c.087-.08.131-.198.131-.357a.561.561 0 0 0-.219-.455.805.805 0 0 0-.525-.178H.744c-.204 0-.38.06-.525.178A.561.561 0 0 0 0 6.633c0 .132.044.238.131.317l.088.119 5.95 6.175c.262.237.54.356.831.356.292 0 .569-.119.831-.356l5.95-6.175.088-.08z"/></g></symbol><symbol viewBox="0 0 6 12" id="grab" xmlns="http://www.w3.org/2000/svg"><g fill-rule="nonzero"><circle cx="1" cy="1" r="1"/><circle cx="1" cy="6" r="1"/><circle cx="1" cy="11" r="1"/><circle cx="5" cy="1" r="1"/><circle cx="5" cy="6" r="1"/><circle cx="5" cy="11" r="1"/></g></symbol><symbol viewBox="0 0 14 8" id="next" xmlns="http://www.w3.org/2000/svg"><path d="M13.869.99C13.956.91 14 .792 14 .633a.561.561 0 0 0-.219-.455.805.805 0 0 0-.525-.178H.744C.54 0 .364.06.219.178A.561.561 0 0 0 0 .633C0 .765.044.871.131.95l.088.119 5.95 6.175c.262.237.54.356.831.356.292 0 .569-.119.831-.356l5.95-6.175.088-.08z" fill-rule="evenodd"/></symbol><symbol viewBox="0 0 14 8" id="prev" xmlns="http://www.w3.org/2000/svg"><path d="M13.869 6.61c.087.08.131.198.131.357a.561.561 0 0 1-.219.455.805.805 0 0 1-.525.178H.744a.805.805 0 0 1-.525-.178A.561.561 0 0 1 0 6.967c0-.132.044-.238.131-.317l.088-.119L6.169.356C6.43.12 6.709 0 7 0c.292 0 .569.119.831.356l5.95 6.175.088.08z" fill-rule="evenodd"/></symbol><symbol viewBox="0 0 10 16" id="right" xmlns="http://www.w3.org/2000/svg"><path d="M9.875 14.125L8 16 0 8l8-8 1.875 1.875L3.75 8z" fill-rule="evenodd"/></symbol><symbol viewBox="0 0 0 0" id="sprite" xmlns="http://www.w3.org/2000/svg"/><symbol viewBox="0 0 14 14" id="top" xmlns="http://www.w3.org/2000/svg"><g fill-rule="evenodd"><path d="M13.869 13.01c.087.08.131.198.131.357a.561.561 0 0 1-.219.455.805.805 0 0 1-.525.178H.744a.805.805 0 0 1-.525-.178.561.561 0 0 1-.219-.455c0-.132.044-.238.131-.317l.088-.119 5.95-6.175C6.43 6.52 6.709 6.4 7 6.4c.292 0 .569.119.831.356l5.95 6.175.088.08z"/><path d="M13.869 7.01c.087.08.131.198.131.357a.561.561 0 0 1-.219.455.805.805 0 0 1-.525.178H.744a.805.805 0 0 1-.525-.178A.561.561 0 0 1 0 7.367c0-.132.044-.238.131-.317l.088-.119L6.169.756C6.43.52 6.709.4 7 .4c.292 0 .569.119.831.356l5.95 6.175.088.08z"/></g></symbol><symbol viewBox="0 0 13 15" id="trash" xmlns="http://www.w3.org/2000/svg"><path d="M8.438 13.125a.45.45 0 0 0 .33-.14.45.45 0 0 0 .138-.329V7.031a.45.45 0 0 0-.139-.33.45.45 0 0 0-.33-.138.45.45 0 0 0-.33.139.45.45 0 0 0-.138.33v5.624a.45.45 0 0 0 .139.33.45.45 0 0 0 .33.139zm-4.688 0a.45.45 0 0 0 .33-.14.45.45 0 0 0 .139-.329V7.031a.45.45 0 0 0-.14-.33.45.45 0 0 0-.329-.138.45.45 0 0 0-.33.139.45.45 0 0 0-.139.33v5.624a.45.45 0 0 0 .14.33.45.45 0 0 0 .329.139zm7.5-11.25H8.437V.937A.9.9 0 0 0 8.16.278.9.9 0 0 0 7.5 0H4.687a.9.9 0 0 0-.659.278.9.9 0 0 0-.278.66v.937H.937a.901.901 0 0 0-.659.278.9.9 0 0 0-.278.66v.937a.9.9 0 0 0 .278.66.901.901 0 0 0 .66.277v8.438c0 .518.183.96.549 1.326.366.366.808.549 1.325.549h6.563c.518 0 .96-.183 1.326-.55.366-.366.549-.807.549-1.325V4.687a.9.9 0 0 0 .66-.278.9.9 0 0 0 .277-.659v-.938a.9.9 0 0 0-.278-.659.9.9 0 0 0-.659-.278zm-6.563-.469a.45.45 0 0 1 .14-.33.45.45 0 0 1 .33-.139H7.03a.45.45 0 0 1 .33.14.45.45 0 0 1 .139.33v.468H4.688v-.469zm5.625 11.719a.901.901 0 0 1-.278.66.9.9 0 0 1-.659.277H2.812a.9.9 0 0 1-.659-.278.901.901 0 0 1-.278-.659V4.687h8.438v8.438zm.47-9.375H1.405a.45.45 0 0 1-.33-.14.45.45 0 0 1-.139-.329.45.45 0 0 1 .14-.33.45.45 0 0 1 .33-.139h9.374a.45.45 0 0 1 .33.14.45.45 0 0 1 .139.33.45.45 0 0 1-.14.329.45.45 0 0 1-.329.139zm-4.688 9.375a.45.45 0 0 0 .33-.14.45.45 0 0 0 .138-.329V7.031a.45.45 0 0 0-.139-.33.45.45 0 0 0-.33-.138.45.45 0 0 0-.329.139.45.45 0 0 0-.139.33v5.624a.45.45 0 0 0 .14.33.45.45 0 0 0 .329.139z" fill-rule="evenodd"/></symbol></svg>